<svg id="visual" viewBox="0 0 1366 768" width="1366" height="768" xmlns="http://www.w3.org/2000/svg" xmlns:xlink="http://www.w3.org/1999/xlink" version="1.1"><path d="M0 670L38 651.2C76 632.3 152 594.7 227.8 586C303.7 577.3 379.3 597.7 455.2 589.7C531 581.7 607 545.3 683 552.8C759 560.3 835 611.7 910.8 634.3C986.7 657 1062.3 651 1138.2 630.7C1214 610.3 1290 575.7 1328 558.3L1366 541L1366 769L1328 769C1290 769 1214 769 1138.2 769C1062.3 769 986.7 769 910.8 769C835 769 759 769 683 769C607 769 531 769 455.2 769C379.3 769 303.7 769 227.8 769C152 769 76 769 38 769L0 769Z" fill="#0044cc" stroke-linecap="round" stroke-linejoin="miter"></path></svg>