<svg id="visual" viewBox="0 0 900 600" width="900" height="600" xmlns="http://www.w3.org/2000/svg" xmlns:xlink="http://www.w3.org/1999/xlink" version="1.1"><g transform="translate(849.5922505214951 520.9374848952668)"><path d="M246 -394.2C329.8 -377.8 416 -333.9 470.4 -263.6C524.9 -193.3 547.4 -96.7 539.9 -4.3C532.4 88 494.8 176 447.8 259C400.7 342 344.1 420 267.9 476C191.7 532 95.8 566 3.3 560.2C-89.2 554.4 -178.3 508.9 -244.6 447.1C-310.8 385.4 -354.2 307.4 -372.1 230.2C-390 153 -382.5 76.5 -399.4 -9.7C-416.3 -96 -457.6 -192 -432.7 -257.2C-407.9 -322.5 -316.9 -357 -233.8 -373.6C-150.7 -390.3 -75.3 -389.1 2.9 -394.2C81.2 -399.3 162.3 -410.5 246 -394.2" fill="#0040bc"></path></g></svg>