<svg id="visual" viewBox="0 0 900 600" width="900" height="600" xmlns="http://www.w3.org/2000/svg" xmlns:xlink="http://www.w3.org/1999/xlink" version="1.1"><rect x="0" y="0" width="900" height="600" fill="#f3f5f7"></rect><path d="M0 500L18.8 493.3C37.7 486.7 75.3 473.3 112.8 473.5C150.3 473.7 187.7 487.3 225.2 490.8C262.7 494.3 300.3 487.7 337.8 480C375.3 472.3 412.7 463.7 450.2 463.3C487.7 463 525.3 471 562.8 473.7C600.3 476.3 637.7 473.7 675.2 471.5C712.7 469.3 750.3 467.7 787.8 468.8C825.3 470 862.7 474 881.3 476L900 478L900 601L881.3 601C862.7 601 825.3 601 787.8 601C750.3 601 712.7 601 675.2 601C637.7 601 600.3 601 562.8 601C525.3 601 487.7 601 450.2 601C412.7 601 375.3 601 337.8 601C300.3 601 262.7 601 225.2 601C187.7 601 150.3 601 112.8 601C75.3 601 37.7 601 18.8 601L0 601Z" fill="#0066ff"></path><path d="M0 507L18.8 506.3C37.7 505.7 75.3 504.3 112.8 505.8C150.3 507.3 187.7 511.7 225.2 513.2C262.7 514.7 300.3 513.3 337.8 512.3C375.3 511.3 412.7 510.7 450.2 512.7C487.7 514.7 525.3 519.3 562.8 521.3C600.3 523.3 637.7 522.7 675.2 523.5C712.7 524.3 750.3 526.7 787.8 524.7C825.3 522.7 862.7 516.3 881.3 513.2L900 510L900 601L881.3 601C862.7 601 825.3 601 787.8 601C750.3 601 712.7 601 675.2 601C637.7 601 600.3 601 562.8 601C525.3 601 487.7 601 450.2 601C412.7 601 375.3 601 337.8 601C300.3 601 262.7 601 225.2 601C187.7 601 150.3 601 112.8 601C75.3 601 37.7 601 18.8 601L0 601Z" fill="#193ebd"></path><path d="M0 542L18.8 546C37.7 550 75.3 558 112.8 558.3C150.3 558.7 187.7 551.3 225.2 550.3C262.7 549.3 300.3 554.7 337.8 559C375.3 563.3 412.7 566.7 450.2 563.7C487.7 560.7 525.3 551.3 562.8 546C600.3 540.7 637.7 539.3 675.2 540.3C712.7 541.3 750.3 544.7 787.8 550.2C825.3 555.7 862.7 563.3 881.3 567.2L900 571L900 601L881.3 601C862.7 601 825.3 601 787.8 601C750.3 601 712.7 601 675.2 601C637.7 601 600.3 601 562.8 601C525.3 601 487.7 601 450.2 601C412.7 601 375.3 601 337.8 601C300.3 601 262.7 601 225.2 601C187.7 601 150.3 601 112.8 601C75.3 601 37.7 601 18.8 601L0 601Z" fill="#0e197f"></path></svg>