<svg id="visual" viewBox="0 0 1366 768" width="1366" height="768" xmlns="http://www.w3.org/2000/svg" xmlns:xlink="http://www.w3.org/1999/xlink" version="1.1"><path d="M1023 0L986 25.7C949 51.3 875 102.7 840.3 153.8C805.7 205 810.3 256 820 307.2C829.7 358.3 844.3 409.7 854.2 460.8C864 512 869 563 862.8 614.2C856.7 665.3 839.3 716.7 830.7 742.3L822 768L0 768L0 742.3C0 716.7 0 665.3 0 614.2C0 563 0 512 0 460.8C0 409.7 0 358.3 0 307.2C0 256 0 205 0 153.8C0 102.7 0 51.3 0 25.7L0 0Z" fill="#658cff"></path><path d="M529 0L532.2 25.7C535.3 51.3 541.7 102.7 558.5 153.8C575.3 205 602.7 256 595.8 307.2C589 358.3 548 409.7 549.5 460.8C551 512 595 563 602 614.2C609 665.3 579 716.7 564 742.3L549 768L0 768L0 742.3C0 716.7 0 665.3 0 614.2C0 563 0 512 0 460.8C0 409.7 0 358.3 0 307.2C0 256 0 205 0 153.8C0 102.7 0 51.3 0 25.7L0 0Z" fill="#0055ff"></path><path d="M381 0L367.5 25.7C354 51.3 327 102.7 328.3 153.8C329.7 205 359.3 256 363.3 307.2C367.3 358.3 345.7 409.7 337.8 460.8C330 512 336 563 349.5 614.2C363 665.3 384 716.7 394.5 742.3L405 768L0 768L0 742.3C0 716.7 0 665.3 0 614.2C0 563 0 512 0 460.8C0 409.7 0 358.3 0 307.2C0 256 0 205 0 153.8C0 102.7 0 51.3 0 25.7L0 0Z" fill="#0040bc"></path></svg>