<svg id="visual" viewBox="0 0 1800 1200" width="1800" height="1200" xmlns="http://www.w3.org/2000/svg" xmlns:xlink="http://www.w3.org/1999/xlink" version="1.1"><path d="M0 978L37.5 986.8C75 995.7 150 1013.3 225 988.3C300 963.3 375 895.7 450 881.3C525 867 600 906 675 908.8C750 911.7 825 878.3 900 872.3C975 866.3 1050 887.7 1125 883.5C1200 879.3 1275 849.7 1350 861.8C1425 874 1500 928 1575 934.7C1650 941.3 1725 900.7 1762.5 880.3L1800 860L1800 1201L1762.5 1201C1725 1201 1650 1201 1575 1201C1500 1201 1425 1201 1350 1201C1275 1201 1200 1201 1125 1201C1050 1201 975 1201 900 1201C825 1201 750 1201 675 1201C600 1201 525 1201 450 1201C375 1201 300 1201 225 1201C150 1201 75 1201 37.5 1201L0 1201Z" fill="#0055FF" stroke-linecap="round" stroke-linejoin="miter"></path></svg>